<svg xmlns="http://www.w3.org/2000/svg" viewBox="0 0 512 512" fill="none">
  <defs>
    <linearGradient id="bg" x1="0" y1="0" x2="1" y2="1">
      <stop offset="0%" stop-color="#05070f"/>
      <stop offset="100%" stop-color="#17110a"/>
    </linearGradient>
    <linearGradient id="gold" x1="0" y1="0" x2="1" y2="1">
      <stop offset="0%" stop-color="#f6ff7e"/>
      <stop offset="100%" stop-color="#ff9f1c"/>
    </linearGradient>
    <radialGradient id="glow" cx="50%" cy="45%" r="54%">
      <stop offset="0%" stop-color="#ffe15e" stop-opacity="0.85"/>
      <stop offset="100%" stop-color="#ffe15e" stop-opacity="0"/>
    </radialGradient>
  </defs>
  <rect width="512" height="512" rx="96" fill="url(#bg)"/>
  <circle cx="256" cy="210" r="186" fill="url(#glow)"/>
  <path d="M132 179c21-70 78-119 124-119 46 0 103 49 124 119l-27 185H160l-28-185Z" fill="url(#gold)"/>
  <path d="M188 184c12-50 42-84 67-84 26 0 57 34 68 84l-11 118H199l-11-118Z" fill="#06080d"/>
  <path d="M203 226h26c6 0 12 5 12 12s-6 12-12 12h-26c-6 0-12-5-12-12s6-12 12-12Zm82 0h25c6 0 12 5 12 12s-6 12-12 12h-25c-6 0-12-5-12-12s6-12 12-12Z" fill="#fff8be"/>
  <path d="M347 189c31 7 55 33 63 68-47 8-88 34-117 72l-32-19c13-58 42-101 86-121Z" fill="#120f09" stroke="#ffd34d" stroke-width="8"/>
  <path d="M365 193c17 4 32 17 40 35-29 7-54 24-73 47l-16-10c10-30 24-55 49-72Z" fill="url(#gold)"/>
  <circle cx="364" cy="206" r="16" fill="#0f0c07"/>
  <path d="M364 190c-7 5-15 10-15 19 0 8 7 12 15 18 8-6 16-10 16-18 0-9-8-14-16-19Z" fill="#ffe266"/>
  <path d="M182 334c24 37 53 57 74 57 21 0 50-20 75-57l17 113H166l16-113Z" fill="#18120a"/>
  <text x="256" y="397" text-anchor="middle" fill="#fff2b2" font-size="18" font-family="Arial, sans-serif" font-weight="700">NEON STRATEGIST</text>
</svg>