<svg xmlns="http://www.w3.org/2000/svg" viewBox="0 0 1600 900" fill="none">
  <defs>
    <linearGradient id="bg" x1="0" y1="0" x2="1600" y2="900" gradientUnits="userSpaceOnUse">
      <stop stop-color="#11131A"/>
      <stop offset=".5" stop-color="#1A1E28"/>
      <stop offset="1" stop-color="#0A0B10"/>
    </linearGradient>
    <linearGradient id="facet" x1="0" y1="0" x2="1" y2="1">
      <stop stop-color="#BBC4D2" stop-opacity=".15"/>
      <stop offset="1" stop-color="#BBC4D2" stop-opacity="0"/>
    </linearGradient>
  </defs>
  <rect width="1600" height="900" fill="url(#bg)"/>
  <path d="M132 98L436 64L618 190L502 396L210 408L84 232Z" fill="url(#facet)"/>
  <path d="M1092 112L1438 148L1518 364L1342 520L1034 430L1002 228Z" fill="url(#facet)"/>
  <path d="M666 516L948 430L1218 612L1070 824L742 834L574 666Z" fill="url(#facet)"/>
  <path d="M0 684L318 560L514 692L364 900H0Z" fill="url(#facet)"/>
  <path d="M126 132L1456 132" stroke="#CAD3E1" stroke-opacity=".08" stroke-width="2"/>
  <path d="M178 768L1458 768" stroke="#7F8AA0" stroke-opacity=".08" stroke-width="2"/>
  <path d="M300 94L1198 806" stroke="#C0CAD7" stroke-opacity=".06" stroke-width="2"/>
</svg>
