<svg xmlns="http://www.w3.org/2000/svg" viewBox="0 0 400 220" fill="none"><rect width="400" height="220" rx="32" fill="#070b15"/><rect x="10" y="10" width="380" height="200" rx="24" stroke="#ffc845" stroke-opacity="0.55"/><path d="M18 40h364" stroke="#39f0ff" stroke-opacity="0.4" stroke-width="4"/><path d="M20 180h360" stroke="#ff52d0" stroke-opacity="0.5" stroke-width="4"/><circle cx="92" cy="110" r="64" fill="#f9b81a" fill-opacity="0.16"/><path d="M70 130c10-44 39-72 61-72 21 0 48 27 57 72l-10 54H80l-10-54Z" fill="#101010" stroke="#ffd24d" stroke-width="6"/><path d="M102 109h16c7 0 12 5 12 12s-5 12-12 12h-16c-7 0-12-5-12-12s5-12 12-12Zm48 0h16c7 0 12 5 12 12s-5 12-12 12h-16c-7 0-12-5-12-12s5-12 12-12Z" fill="#ffe98a"/><path d="M224 40h138l20 20v112l-20 20H224l-20-20V60l20-20Z" fill="#0f1730" stroke="#67e6ff" stroke-width="4"/><text x="242" y="92" fill="#49f1ff" font-size="18" font-family="Arial, sans-serif" font-weight="700">GRANDMASTER</text><text x="242" y="128" fill="#ffd868" font-size="30" font-family="Arial, sans-serif" font-weight="700">NEON RIVALS</text><text x="242" y="160" fill="#d5e7ff" font-size="14" font-family="Arial, sans-serif">Season 1 Competitive Reward</text></svg>